<svg width="32" height="32" viewBox="0 0 32 32" fill="none" xmlns="http://www.w3.org/2000/svg">
    <path
        d="M10.9441 15.3078C10.9462 15.295 10.9483 15.2821 10.9503 15.2693L7.12306 16.0979L3.06493 11.5816L4.22712 10.5372L7.67895 14.3788L11.5433 13.5422C11.7685 13.1409 12.0457 12.7744 12.3655 12.4509L9.61989 11.7744L7.21442 7.33567L8.58828 6.59124L10.6645 10.4226L13.7249 11.1766C13.1411 10.701 12.7681 9.97666 12.7681 9.16504C12.7681 8.55848 12.9769 8.00103 13.3258 7.55931C12.8308 7.12926 12.5169 6.49598 12.5169 5.79035C12.5169 4.498 13.5683 3.44659 14.8607 3.44659H15.0108V5.0091H14.8607C14.4299 5.0091 14.0794 5.35957 14.0794 5.79035C14.0794 6.22113 14.4299 6.5716 14.8607 6.5716H17.1393C17.5701 6.5716 17.9205 6.22113 17.9205 5.79035C17.9205 5.35957 17.5701 5.0091 17.1393 5.0091H16.9892V3.44659H17.1393C18.4316 3.44659 19.483 4.498 19.483 5.79035C19.483 6.49598 19.1691 7.12926 18.6742 7.55931C19.0231 8.00098 19.2319 8.55848 19.2319 9.16504C19.2319 9.97671 18.8588 10.701 18.2751 11.1766L21.3354 10.4226L23.4117 6.59124L24.7854 7.33567L22.38 11.7744L19.6343 12.4509C19.9541 12.7744 20.2313 13.1409 20.4565 13.5422L24.3209 14.3788L27.7727 10.5372L28.935 11.5816L24.8769 16.0979L21.0497 15.2693C21.0516 15.2822 21.0537 15.2951 21.0558 15.308C21.0594 15.3302 21.063 15.3524 21.066 15.3748L21.1355 15.9037C20.7987 16.3935 20.1912 16.842 19.3986 17.1804C18.4175 17.5993 17.2423 17.8207 16 17.8207C14.7576 17.8207 13.5824 17.5993 12.6013 17.1804C11.8087 16.842 11.2012 16.3935 10.8644 15.9037L10.9339 15.3748C10.9368 15.3523 10.9405 15.33 10.9441 15.3078Z"
        fill="white" />
    <path
        d="M28.7975 19.0197L29.3333 20.4876L25.1863 22.0015L21.687 20.0978L21.9125 21.8126C22.3821 25.3841 19.6022 28.5535 16 28.5535C12.3977 28.5535 9.61782 25.3841 10.0875 21.8126L10.3129 20.0977L6.81354 22.0014L2.66666 20.4876L3.20249 19.0197L6.68666 20.2917L10.5648 18.1819L10.61 17.8389C11.0058 18.1334 11.4673 18.3952 11.9878 18.6174C13.1613 19.1184 14.5487 19.3832 16 19.3832C17.4514 19.3832 18.8388 19.1184 20.0122 18.6174C20.5327 18.3952 20.9941 18.1334 21.39 17.8389L21.4351 18.1819L25.3133 20.2917L28.7975 19.0197Z"
        fill="white" />
</svg>