<svg width="32" height="32" viewBox="0 0 32 32" fill="none" xmlns="http://www.w3.org/2000/svg">
    <path fill-rule="evenodd" clip-rule="evenodd"
        d="M18.3696 7.12786V6.22709C18.3696 5.94511 18.1696 5.70198 17.8931 5.64766C17.2785 5.52681 16.6435 5.46436 15.9941 5.46436C15.5951 5.46497 15.2023 5.48918 14.8163 5.53658C14.5765 5.56567 14.3399 5.60351 14.1059 5.6497C13.8294 5.70483 13.6304 5.94734 13.6304 6.22933V7.12423C10.0134 8.02311 7.19107 10.9329 6.41882 14.5977L3.59996 11.3622C3.25613 10.9225 2.55443 11.2582 2.68199 11.802L6.20839 24.0882V25.4256C6.21002 26.1161 6.95057 26.556 7.56499 26.2396L15.5797 22.1167C15.8458 21.9802 16.1611 21.9834 16.4242 22.1246L24.4161 26.4233C25.0232 26.7501 25.7599 26.3263 25.7874 25.6374C25.7902 25.5619 25.7918 25.4866 25.7918 25.4106V24.0874L29.318 11.802C29.4458 11.2582 28.7439 10.9225 28.4 11.3622L25.5673 14.6137C24.7763 10.9581 21.9716 8.03386 18.3696 7.12786ZM14.4925 15.6549V18.4804C14.4925 18.7964 14.3098 19.0837 14.0235 19.2173L11.3726 20.4543C11.0735 20.5939 10.7199 20.539 10.4774 20.3148L8.19144 18.2046C7.92716 17.9608 7.85453 17.5722 8.0124 17.2494L8.96862 15.2977C9.10493 15.0183 9.38854 14.8415 9.699 14.8415H13.6797C14.1285 14.8415 14.4925 15.2059 14.4925 15.6549ZM23.8086 18.2046C24.0729 17.9608 24.1455 17.5722 23.9877 17.2494L23.0315 15.2977C22.8951 15.0183 22.6115 14.8415 22.3011 14.8415H18.3206C17.8716 14.8415 17.5076 15.2059 17.5076 15.6549V18.4804C17.5076 18.7964 17.6903 19.0837 17.9765 19.2173L20.6275 20.4543C20.9266 20.5939 21.2802 20.539 21.5229 20.3148L23.8086 18.2046Z"
        fill="white" />
</svg>