<svg width="32" height="32" viewBox="0 0 32 32" fill="none" xmlns="http://www.w3.org/2000/svg">
    <path
        d="M16.3647 2.66669H15.563C10.1447 2.66669 5.7916 6.68891 5.7916 11.6342V16.7421C5.7916 18.4161 6.83331 19.9172 8.49988 20.4223V23.6473C8.49988 26.8358 14.2825 29.3334 15.3554 29.3334H16.5723C17.6449 29.3334 23.5001 26.8358 23.5001 23.6473V20.4223C25.1667 19.9174 26.2084 18.4159 26.2084 16.7421V11.6342C26.2086 6.68891 21.783 2.66669 16.3647 2.66669ZM15.9638 17.0391C16.8878 17.0391 17.3953 19.3949 17.3953 20.1757C17.3953 20.9239 16.9659 21.0246 16.5456 21.0246C16.463 21.0246 16.3741 21.0212 16.2802 21.0173C16.0805 21.0092 15.8469 21.0092 15.6481 21.0173C15.554 21.0214 15.4653 21.0246 15.3823 21.0246C15.1824 21.0246 14.9548 21.0058 14.7832 20.8661C14.6121 20.727 14.5326 20.5075 14.5326 20.1757C14.5326 19.3949 15.0401 17.0391 15.9638 17.0391ZM10.1125 14.3397C10.4773 13.8998 10.9978 13.6351 11.5787 13.5958L12.4984 13.5331C13.7272 13.4518 14.6872 14.0835 14.6872 14.9377C14.6872 15.7552 13.8655 16.8136 12.8167 17.3471L12.0188 17.7527C11.7375 17.896 11.4546 17.9686 11.1792 17.9686C10.4013 17.9686 9.83173 17.4032 9.72656 16.5283L9.6536 15.9188C9.58469 15.3409 9.74747 14.7803 10.1125 14.3397ZM22.1506 21.0519L20.1667 21.7252V22.8776C20.1667 22.9066 20.1431 22.9367 20.1371 22.9642C20.0906 23.9669 19.1914 24.5419 17.6901 24.5419H14.1731C12.9993 24.5419 11.8335 23.9682 11.8335 22.8776V21.7252L9.81787 21.0519C9.59984 20.9785 9.47674 20.7426 9.55013 20.5243C9.62309 20.3063 9.85712 20.1883 10.0747 20.2621L12.3732 21.0308C12.543 21.088 12.6667 21.2469 12.6667 21.4261V22.878C12.6667 23.127 12.8167 23.3105 13.0458 23.4415C13.0746 23.2394 13.2683 23.0835 13.4783 23.0835C13.7082 23.0835 13.9167 23.2702 13.9167 23.5001V23.6866C13.9167 23.6992 14.0767 23.7088 14.1729 23.7088H14.75V23.4999C14.75 23.2699 14.9366 23.0833 15.1666 23.0833C15.3966 23.0833 15.5832 23.2699 15.5832 23.4999V23.7088H16.4165V23.4999C16.4165 23.2699 16.6032 23.0833 16.8332 23.0833C17.0632 23.0833 17.2498 23.2699 17.2498 23.4999V23.7088H17.6899C17.7983 23.7088 17.8747 23.702 18.0831 23.6917V23.5001C18.0831 23.2702 18.2512 23.0835 18.4812 23.0835C18.7071 23.0835 18.8806 23.2633 18.8874 23.4878C19.1255 23.3636 19.3102 23.1727 19.3102 22.8783C19.3102 22.8527 19.3328 22.8277 19.3328 22.8032V21.4263C19.3328 21.2471 19.4263 21.0882 19.5961 21.031L21.8743 20.2623C22.0927 20.1885 22.334 20.3065 22.407 20.5245C22.4812 20.7424 22.3688 20.9785 22.1506 21.0519ZM22.5296 15.9186L22.4567 16.5279C22.3519 17.403 21.7819 17.9684 21.0043 17.9684C20.7287 17.9684 20.4462 17.8958 20.1644 17.7525L19.3667 17.3469C18.3178 16.8134 17.4962 15.7552 17.4962 14.9375C17.4962 14.0833 18.459 13.4523 19.6848 13.5329L20.6047 13.5956C21.1854 13.6351 21.706 13.8996 22.071 14.3397C22.4362 14.7803 22.599 15.3409 22.5296 15.9186Z"
        fill="white" />
</svg>