<svg width="24" height="24" viewBox="0 0 24 24" fill="none" xmlns="http://www.w3.org/2000/svg">
    <g opacity="0.6">
        <path
            d="M21.8184 20.9417L3.05835 2.18174C2.88104 2.00428 2.61447 1.95118 2.38269 2.04731C2.15106 2.14329 2 2.36927 2 2.62012V21.38C2 21.7224 2.27756 22 2.61996 22H21.38C21.6307 22 21.8569 21.8489 21.9527 21.6173C22.0487 21.3857 21.9957 21.119 21.8184 20.9417ZM15.2683 20.7601V19.7257C15.2683 19.3833 14.9907 19.1057 14.6483 19.1057C14.3061 19.1057 14.0283 19.3833 14.0283 19.7257V20.7601H12.5884V20.1012C12.5884 19.7589 12.3108 19.4812 11.9684 19.4812C11.626 19.4812 11.3484 19.7589 11.3484 20.1012V20.7601H9.90832V19.7257C9.90832 19.3833 9.63076 19.1057 9.28836 19.1057C8.94595 19.1057 8.66839 19.3833 8.66839 19.7257V20.7601H7.22842V20.1012C7.22842 19.7589 6.95071 19.4812 6.60846 19.4812C6.26605 19.4812 5.98834 19.7589 5.98834 20.1012V20.7601H3.24008V18.0117H3.8988C4.24121 18.0117 4.51877 17.7341 4.51877 17.3917C4.51877 17.0493 4.24121 16.7717 3.8988 16.7717H3.24008V15.3316H4.27432C4.61673 15.3316 4.89444 15.054 4.89444 14.7116C4.89444 14.3692 4.61673 14.0917 4.27432 14.0917H3.24008V12.6517H3.8988C4.24121 12.6517 4.51877 12.3741 4.51877 12.0317C4.51877 11.6893 4.24121 11.4118 3.8988 11.4118H3.24008V9.97165H4.27432C4.61673 9.97165 4.89444 9.6941 4.89444 9.35169C4.89444 9.00928 4.61673 8.73173 4.27432 8.73173H3.24008V4.11686L19.8831 20.7601H15.2683Z"
            fill="white" />
        <path
            d="M6.58558 18.0117H12.2136C12.4643 18.0117 12.6905 17.8606 12.7863 17.629C12.8823 17.3972 12.8293 17.1307 12.6519 16.9533L7.02397 11.3253C6.84666 11.148 6.57993 11.095 6.34831 11.191C6.11668 11.287 5.96561 11.513 5.96561 11.7637V17.3917C5.96561 17.7341 6.24317 18.0117 6.58558 18.0117ZM7.20555 13.2606L10.7168 16.7718H7.20555V13.2606Z"
            fill="white" />
    </g>
</svg>