<svg width="24" height="24" viewBox="0 0 24 24" fill="none" xmlns="http://www.w3.org/2000/svg">
    <g opacity="0.6">
        <path
            d="M16.6746 9.41016L17.6046 7.64008C18.2276 6.45422 18.1843 5.00531 17.4915 3.85879C16.7987 2.71227 15.5363 2 14.1967 2H9.80334C8.46377 2 7.20123 2.71227 6.50845 3.85875C5.81572 5.00527 5.7724 6.45418 6.39541 7.64004L7.32541 9.41016C5.35365 10.8541 4.07056 13.1853 4.07056 15.8109C4.07056 17.748 4.77693 19.6133 6.05963 21.0629C6.58662 21.6584 7.34529 22 8.14095 22H15.859C16.6548 22 17.4134 21.6584 17.9404 21.0629C19.223 19.6132 19.9294 17.7481 19.9294 15.8109C19.9294 13.1853 18.6463 10.8541 16.6746 9.41016ZM7.62447 4.53309C8.0826 3.77484 8.91752 3.30387 9.80334 3.30387H14.1967C15.0825 3.30387 15.9174 3.77484 16.3756 4.53309C16.8337 5.29133 16.8623 6.24949 16.4503 7.03371L15.5618 8.72492C15.1435 8.51395 14.7092 8.34156 14.2613 8.20867L15.0683 6.67277C15.2867 6.25699 15.2715 5.74895 15.0286 5.34699C14.7857 4.94496 14.3431 4.69523 13.8733 4.69523H10.1265C9.65685 4.69523 9.21416 4.94496 8.97123 5.34699C8.72838 5.74902 8.71314 6.25699 8.93158 6.67285L9.73853 8.20871C9.29072 8.3416 8.85635 8.51402 8.4381 8.72496L7.54955 7.03375C7.13771 6.24941 7.16635 5.29125 7.62447 4.53309ZM13.9141 6.06637L12.9315 7.93652C12.6259 7.90059 12.3152 7.88156 12.0001 7.88156C11.685 7.88156 11.3743 7.90063 11.0687 7.93652L10.086 6.06641C10.0786 6.05223 10.079 6.03488 10.0874 6.02121C10.0956 6.00754 10.1107 5.99906 10.1267 5.99906H13.8735C13.8894 5.99906 13.9045 6.00754 13.9128 6.02121C13.921 6.03488 13.9215 6.05223 13.9141 6.06637ZM16.9639 20.1988C16.6842 20.5149 16.2815 20.6962 15.859 20.6962H8.14099C7.71849 20.6962 7.3158 20.5149 7.03615 20.1988C5.96459 18.9878 5.37447 17.4295 5.37447 15.8109C5.37447 12.1576 8.3467 9.18539 12 9.18539C15.6533 9.18539 18.6256 12.1576 18.6256 15.8109C18.6256 17.4295 18.0354 18.9878 16.9639 20.1988Z"
            fill="white" />
    </g>
</svg>