<svg width="32" height="32" viewBox="0 0 32 32" fill="none" xmlns="http://www.w3.org/2000/svg">
    <path fill-rule="evenodd" clip-rule="evenodd"
        d="M16 2.66669C9.56668 2.66669 4.33334 7.90002 4.33334 14.3334C4.33334 20.3734 9.23168 29.3334 16 29.3334C22.7683 29.3334 27.6667 20.3734 27.6667 14.3334C27.6667 7.90002 22.4317 2.66669 16 2.66669ZM24.325 11.715C24.295 11.4967 24.1767 11.3 24 11.1667C23.825 11.0334 23.6033 10.98 23.3833 11.0084C19.7117 11.5334 17.15 14.9467 17.675 18.6167C17.735 19.0334 18.0917 19.3334 18.4983 19.3334C18.5367 19.3334 18.5783 19.33 18.6167 19.325C20.395 19.0717 21.97 18.1384 23.0467 16.7017C24.125 15.265 24.5783 13.495 24.325 11.715ZM7.67501 11.715C7.74001 11.26 8.16834 10.9467 8.61834 11.0084C10.3967 11.2634 11.97 12.1934 13.0467 13.63C14.125 15.0684 14.5783 16.8384 14.325 18.6167C14.265 19.0334 13.9083 19.3334 13.5 19.3334C13.4617 19.3334 13.4217 19.33 13.3833 19.325C11.605 19.07 10.03 18.1384 8.95334 16.7017C7.87501 15.265 7.42167 13.4934 7.67501 11.715Z"
        fill="white" />
</svg>