<svg width="32" height="32" viewBox="0 0 32 32" fill="none" xmlns="http://www.w3.org/2000/svg">
    <path
        d="M17.2499 2.66669C11.7349 2.66669 7.24994 7.15169 7.24994 12.6667V14.1367L4.83827 18.96C4.70827 19.2184 4.72327 19.525 4.87494 19.77C5.0266 20.015 5.29494 20.1667 5.58327 20.1667H7.24994V24.18C7.24994 24.67 7.46327 25.1317 7.83827 25.4484C8.21327 25.765 8.69994 25.9034 9.1866 25.8217L12.2499 25.315V28.5C12.2499 28.745 12.3566 28.9784 12.5449 29.135C12.6966 29.2634 12.8866 29.3334 13.0833 29.3334C13.1283 29.3334 13.1749 29.33 13.2199 29.3217L23.2199 27.655C23.6216 27.5884 23.9166 27.2417 23.9166 26.8334V21.6984C23.9166 20.5384 24.4866 19.6084 24.9649 19.03C26.4383 17.25 27.2499 14.99 27.2499 12.6667C27.2499 7.15169 22.7649 2.66669 17.2499 2.66669Z"
        fill="white" />
</svg>